<svg version="1.1" id="Layer_1" xmlns="http://www.w3.org/2000/svg" xmlns:xlink="http://www.w3.org/1999/xlink" x="0px" y="0px"
	 width="100%" viewBox="0 0 454 454" enable-background="new 0 0 454 454" xml:space="preserve">
<path fill="#FFFEFE" opacity="1.000000" stroke="none" 
	d="
M455.000000,170.000000 
	C455.000000,265.307251 455.000000,360.114471 455.000000,454.960876 
	C303.734406,454.960876 152.468796,454.960876 1.101594,454.960876 
	C1.101594,303.776093 1.101594,152.552094 1.101594,1.164049 
	C152.333191,1.164049 303.666565,1.164049 455.000000,1.164049 
	C455.000000,57.197903 455.000000,113.348953 455.000000,170.000000 
M421.086761,221.351730 
	C420.151001,216.499649 418.168304,211.581223 418.470795,206.807617 
	C419.480225,190.877380 421.950623,175.028595 422.683777,159.094421 
	C424.038818,129.643448 421.621826,100.534782 410.880066,72.693939 
	C403.897614,54.596687 393.282135,39.261391 376.597717,28.568089 
	C369.184723,23.816992 361.694305,22.890221 353.996979,27.037064 
	C348.170898,30.175804 342.089111,33.285824 337.187744,37.615959 
	C318.487823,54.136383 300.182709,71.105522 281.844177,88.030609 
	C279.859436,89.862366 278.369232,90.744942 275.416962,90.316566 
	C265.551239,88.885025 255.622818,87.750328 245.680603,87.008179 
	C222.835571,85.302902 200.118896,86.956009 177.457031,90.017479 
	C175.458649,90.287445 172.674026,89.190163 171.143250,87.770012 
	C157.967590,75.546509 145.217682,62.858036 131.893845,50.802212 
	C121.298805,41.215504 110.413788,31.814144 96.988251,26.184746 
	C90.656845,23.529951 84.429382,23.709377 78.373924,27.422977 
	C69.173935,33.065018 61.224274,40.019157 54.923790,48.812134 
	C42.635197,65.962143 36.341541,85.434021 33.065586,105.999168 
	C28.120493,137.042496 29.424910,168.049301 33.732422,199.060410 
	C34.443470,204.179474 34.644466,209.750229 33.407497,214.693436 
	C27.885162,236.761902 24.201397,258.999390 25.189249,281.816254 
	C25.406174,286.826721 25.838926,291.505157 22.063013,295.738586 
	C20.584528,297.396210 20.298662,300.329254 19.954004,302.750366 
	C18.340857,314.082184 23.179443,323.373474 29.147377,332.486145 
	C31.700798,336.385071 33.804913,340.948425 34.701241,345.488647 
	C36.850914,356.377472 41.538891,365.513794 50.137066,372.613220 
	C59.996731,380.754242 71.629105,384.926605 83.793144,388.075073 
	C90.828270,389.895966 97.795517,392.007660 104.722862,394.210114 
	C116.884232,398.076660 128.876511,402.526550 141.158737,405.944702 
	C150.536575,408.554565 160.252930,409.948181 170.275772,411.975250 
	C169.636520,416.177917 169.036835,420.435455 168.330551,424.675262 
	C167.621078,428.934113 166.680527,433.157288 166.065918,437.428436 
	C165.172333,443.638306 166.783585,445.334595 172.796158,443.900238 
	C189.928482,439.813293 204.646805,431.689056 215.762787,417.631073 
	C216.789520,416.332611 218.846497,415.190918 220.467590,415.131256 
	C228.623077,414.831268 236.794220,414.821411 244.955811,414.955475 
	C246.322311,414.977905 248.135666,415.854828 248.953979,416.934570 
	C259.227478,430.490143 272.927307,438.689270 289.142303,443.037292 
	C299.252045,445.748169 300.678101,444.157166 298.490997,433.898651 
	C296.840271,426.155945 295.839142,418.274750 294.535065,410.371552 
	C296.320923,409.855316 297.403442,409.440704 298.524292,409.233368 
	C318.556976,405.528503 337.754364,399.292389 356.119263,390.454987 
	C357.860016,389.617340 359.903412,389.297485 361.846619,389.009430 
	C376.948090,386.770905 391.484253,382.923126 404.269104,374.130310 
	C414.756104,366.917816 422.017365,357.381653 423.153809,344.435242 
	C423.972778,335.105530 426.929779,326.991943 431.448090,318.756744 
	C437.308929,308.074646 437.682648,296.544464 430.675812,285.581909 
	C429.359070,283.521851 428.249756,280.861755 428.269531,278.488770 
	C428.428650,259.388580 425.718201,240.679199 421.086761,221.351730 
z"/>
<path fill="#4B140A" opacity="1.000000" stroke="none" 
	d="
M421.163879,221.763367 
	C425.718201,240.679199 428.428650,259.388580 428.269531,278.488770 
	C428.249756,280.861755 429.359070,283.521851 430.675812,285.581909 
	C437.682648,296.544464 437.308929,308.074646 431.448090,318.756744 
	C426.929779,326.991943 423.972778,335.105530 423.153809,344.435242 
	C422.017365,357.381653 414.756104,366.917816 404.269104,374.130310 
	C391.484253,382.923126 376.948090,386.770905 361.846619,389.009430 
	C359.903412,389.297485 357.860016,389.617340 356.119263,390.454987 
	C337.754364,399.292389 318.556976,405.528503 298.524292,409.233368 
	C297.403442,409.440704 296.320923,409.855316 294.535065,410.371552 
	C295.839142,418.274750 296.840271,426.155945 298.490997,433.898651 
	C300.678101,444.157166 299.252045,445.748169 289.142303,443.037292 
	C272.927307,438.689270 259.227478,430.490143 248.953979,416.934570 
	C248.135666,415.854828 246.322311,414.977905 244.955811,414.955475 
	C236.794220,414.821411 228.623077,414.831268 220.467590,415.131256 
	C218.846497,415.190918 216.789520,416.332611 215.762787,417.631073 
	C204.646805,431.689056 189.928482,439.813293 172.796158,443.900238 
	C166.783585,445.334595 165.172333,443.638306 166.065918,437.428436 
	C166.680527,433.157288 167.621078,428.934113 168.330551,424.675262 
	C169.036835,420.435455 169.636520,416.177917 170.275772,411.975250 
	C160.252930,409.948181 150.536575,408.554565 141.158737,405.944702 
	C128.876511,402.526550 116.884232,398.076660 104.722862,394.210114 
	C97.795517,392.007660 90.828270,389.895966 83.793144,388.075073 
	C71.629105,384.926605 59.996731,380.754242 50.137066,372.613220 
	C41.538891,365.513794 36.850914,356.377472 34.701241,345.488647 
	C33.804913,340.948425 31.700798,336.385071 29.147377,332.486145 
	C23.179443,323.373474 18.340857,314.082184 19.954004,302.750366 
	C20.298662,300.329254 20.584528,297.396210 22.063013,295.738586 
	C25.838926,291.505157 25.406174,286.826721 25.189249,281.816254 
	C24.201397,258.999390 27.885162,236.761902 33.407497,214.693436 
	C34.644466,209.750229 34.443470,204.179474 33.732422,199.060410 
	C29.424910,168.049301 28.120493,137.042496 33.065586,105.999168 
	C36.341541,85.434021 42.635197,65.962143 54.923790,48.812134 
	C61.224274,40.019157 69.173935,33.065018 78.373924,27.422977 
	C84.429382,23.709377 90.656845,23.529951 96.988251,26.184746 
	C110.413788,31.814144 121.298805,41.215504 131.893845,50.802212 
	C145.217682,62.858036 157.967590,75.546509 171.143250,87.770012 
	C172.674026,89.190163 175.458649,90.287445 177.457031,90.017479 
	C200.118896,86.956009 222.835571,85.302902 245.680603,87.008179 
	C255.622818,87.750328 265.551239,88.885025 275.416962,90.316566 
	C278.369232,90.744942 279.859436,89.862366 281.844177,88.030609 
	C300.182709,71.105522 318.487823,54.136383 337.187744,37.615959 
	C342.089111,33.285824 348.170898,30.175804 353.996979,27.037064 
	C361.694305,22.890221 369.184723,23.816992 376.597717,28.568089 
	C393.282135,39.261391 403.897614,54.596687 410.880066,72.693939 
	C421.621826,100.534782 424.038818,129.643448 422.683777,159.094421 
	C421.950623,175.028595 419.480225,190.877380 418.470795,206.807617 
	C418.168304,211.581223 420.151001,216.499649 421.163879,221.763367 
M214.572678,352.325348 
	C214.421555,352.691895 214.270432,353.058411 214.188187,353.737762 
	C214.188187,353.737762 214.003906,353.999725 213.499527,354.348633 
	C213.343735,354.927521 213.187943,355.506409 213.025482,356.572571 
	C213.025482,356.572571 212.867722,357.033661 212.474152,357.307312 
	C212.559509,357.848267 212.644867,358.389252 212.859192,359.693481 
	C212.807205,360.462372 212.755234,361.231232 212.124435,362.124115 
	C212.449326,363.408661 212.774200,364.693176 213.561203,366.412537 
	C213.749588,367.447174 213.937958,368.481812 214.198547,370.117706 
	C214.458496,370.409271 214.718445,370.700836 215.135529,371.276093 
	C215.135529,371.276093 215.120468,371.600037 215.208023,372.182739 
	C215.475098,372.455444 215.742172,372.728180 216.374374,373.559113 
	C217.596298,375.340363 218.818237,377.121613 220.032425,379.687164 
	C222.026108,381.100830 224.019806,382.514465 226.564941,384.319122 
	C226.775848,382.307526 226.889496,381.223511 227.548386,379.804688 
	C228.550385,379.478577 229.552368,379.152435 231.231430,378.901947 
	C231.812607,378.640503 232.393784,378.379089 233.532104,378.147766 
	C233.707550,378.209412 233.883011,378.271088 234.341858,378.664093 
	C234.581573,378.852570 234.853958,378.946930 235.600525,378.950745 
	C235.600525,378.950745 236.018585,379.092712 236.290726,379.501190 
	C236.841248,379.420197 237.391785,379.339203 238.638565,379.142151 
	C239.106308,379.177551 239.574051,379.212921 240.251709,379.500916 
	C240.605972,379.627502 240.849304,379.496765 241.379501,378.947815 
	C241.379501,378.947815 241.808334,378.932312 242.280914,378.843048 
	C242.592255,378.716522 242.817947,378.500549 243.512039,377.843933 
	C244.948959,376.879028 246.385880,375.914154 248.370804,374.739838 
	C248.552856,374.405243 248.734894,374.070648 248.962112,373.332367 
	C248.962112,373.332367 249.151611,372.972992 249.548294,372.723419 
	C249.787003,372.498596 249.925919,372.223389 250.059052,371.271240 
	C250.408005,370.504730 250.756943,369.738190 251.598816,368.531555 
	C251.677734,367.881500 251.756638,367.231476 251.773758,365.716675 
	C251.668274,362.212799 251.562790,358.708923 252.076126,354.920380 
	C251.666351,354.315887 251.256577,353.711426 250.892822,353.041016 
	C250.892822,353.041016 250.933105,353.110596 250.782288,352.630249 
	C250.529312,352.419312 250.276321,352.208405 249.546494,351.726105 
	C249.107376,351.404510 248.668259,351.082916 247.873276,350.206085 
	C246.566742,349.414703 245.260223,348.623352 243.430511,347.344177 
	C241.028534,346.286682 235.934830,348.106964 238.768448,341.981323 
	C239.846283,341.978729 240.924118,341.976135 242.124680,342.683624 
	C247.135925,345.818115 252.147156,348.952606 257.579315,352.350342 
	C257.906769,351.381744 258.453094,349.765717 259.794861,347.902863 
	C261.175293,347.879852 262.555695,347.856873 264.355957,348.475311 
	C264.907135,350.098785 265.458344,351.722290 265.704865,353.332428 
	C265.704865,353.332428 265.466248,353.142426 264.660675,353.069092 
	C263.453796,353.340271 262.246918,353.611450 260.315186,354.033356 
	C259.575745,354.034698 258.836334,354.036041 257.561890,354.333710 
	C257.659332,355.207184 257.756775,356.080688 258.037292,357.302612 
	C258.037292,357.302612 258.076447,357.694275 258.324890,358.324890 
	C258.942413,358.526428 259.559967,358.727936 260.632172,358.987427 
	C260.632172,358.987427 261.043518,359.189636 261.309540,359.576172 
	C261.547180,359.803253 261.829926,359.929047 262.670959,360.156891 
	C263.112915,360.476501 263.554840,360.796112 264.104370,361.838440 
	C265.574310,362.659546 267.059174,363.455261 268.510132,364.308685 
	C270.075867,365.229553 271.609863,366.204346 273.051910,367.162750 
	C273.051910,367.162750 273.149597,367.122620 272.379913,367.046478 
	C271.421051,367.254547 270.462219,367.462616 269.503357,367.670685 
	C269.570526,368.067017 269.637695,368.463348 269.704865,368.859680 
	C270.916687,368.859680 272.128479,368.859680 273.900024,369.214233 
	C274.970154,371.060364 276.040283,372.906525 276.388245,374.910339 
	C274.899475,375.001862 273.410675,375.093384 271.313354,374.877411 
	C268.541840,372.222412 265.770325,369.567413 262.919861,366.324219 
	C262.259369,366.267517 261.598907,366.210815 260.266785,365.848480 
	C258.382172,364.730469 256.912292,364.224792 257.112457,367.451996 
	C257.163422,368.274139 256.406158,369.146454 255.456314,370.402405 
	C254.673431,372.648865 253.890564,374.895325 253.014374,377.050385 
	C253.014374,377.050385 253.134964,377.100555 252.415009,377.099731 
	C251.603226,378.326416 250.791443,379.553131 249.659637,381.016571 
	C249.659637,381.016571 249.274323,381.116486 248.455109,381.051605 
	C243.978958,381.212555 242.260925,383.799011 243.090439,387.874176 
	C243.589890,390.327850 244.931335,392.610107 246.064896,395.608185 
	C246.095459,396.265625 246.126022,396.923065 246.065079,398.448425 
	C246.730789,399.964661 247.396515,401.480896 248.200684,403.263458 
	C248.200684,403.263458 248.141174,403.557678 248.188522,404.131226 
	C248.428864,404.413818 248.669220,404.696411 249.277283,405.574829 
	C257.542542,421.616821 270.698517,431.452789 288.564606,436.421875 
	C289.884125,436.852325 291.203613,437.282806 292.813324,437.807953 
	C291.653137,430.239044 291.142456,423.072144 289.369659,416.232391 
	C286.644623,405.718567 283.052673,395.429443 280.557373,384.920502 
	C280.949005,384.327667 281.340637,383.734802 281.732269,383.141937 
	C280.438232,382.797150 279.144165,382.452332 277.918427,382.048157 
	C277.918427,382.048157 277.930237,382.137878 277.729797,381.610352 
	C277.409119,381.434082 277.088409,381.257812 276.267212,380.796173 
	C276.156433,380.237701 276.045654,379.679230 276.233917,378.436066 
	C276.544525,377.230438 276.855133,376.024780 277.808716,374.424255 
	C278.878357,374.965118 279.947998,375.505981 281.424957,376.556305 
	C282.058807,376.656921 282.692657,376.757538 283.890015,376.820160 
	C284.257538,376.896515 284.625092,376.972870 285.078979,377.660583 
	C285.761078,377.658661 286.443176,377.656738 287.945221,377.734924 
	C297.073212,379.372925 306.157410,381.332001 315.337982,382.584778 
	C337.140991,385.560150 358.883850,385.374725 380.107483,378.864624 
	C393.153503,374.862854 405.369995,369.169403 412.837494,356.739899 
	C417.102814,349.640350 418.587219,341.952972 417.886139,333.628418 
	C414.626343,335.684448 411.836884,337.443817 409.013245,338.357849 
	C408.981781,337.514435 408.950317,336.670990 409.308380,335.294342 
	C417.328552,329.958923 423.812164,323.267883 427.340790,314.149689 
	C430.461121,306.086456 431.497986,298.048065 426.170166,290.085266 
	C422.819641,293.171204 419.808685,295.944397 416.227478,299.077423 
	C411.177216,302.730316 406.126923,306.383209 400.345306,309.942749 
	C399.227539,308.622253 398.109741,307.301758 397.394684,305.451416 
	C398.338867,304.768646 399.204102,303.919159 400.239532,303.429169 
	C409.730988,298.937622 412.273285,291.325165 412.300507,281.165955 
	C412.361267,258.484039 409.184937,236.373093 402.960724,214.676178 
	C398.236725,198.208908 393.319397,181.757874 383.603668,167.300049 
	C368.461090,144.766617 346.880402,130.527710 322.401550,120.196846 
	C293.639709,108.058441 263.423065,103.026436 232.345947,102.581772 
	C193.410767,102.024658 155.714279,107.759018 120.323036,124.929955 
	C93.259605,138.060440 71.485588,156.731964 59.965778,185.233429 
	C48.860096,212.710327 42.020901,241.267258 40.345421,271.630859 
	C40.018974,275.292999 39.635834,278.952148 39.441895,282.621277 
	C39.419102,283.052521 40.436913,283.538788 41.174664,284.683960 
	C41.156891,287.106842 41.139122,289.529755 40.464401,292.281677 
	C40.166985,294.584595 39.869564,296.887512 39.495106,299.786957 
	C38.863358,299.844208 37.262737,299.989227 35.035328,299.820526 
	C32.821724,298.919128 30.608120,298.017731 28.138453,297.012085 
	C23.498913,305.078064 25.341660,312.761597 28.930462,320.377411 
	C33.357033,329.771088 40.290062,337.103394 48.003876,344.408875 
	C47.209961,344.996948 46.416050,345.584991 45.038567,345.850922 
	C43.766804,344.968079 42.495041,344.085205 41.223278,343.202362 
	C40.778893,343.468628 40.334503,343.734894 39.890118,344.001129 
	C41.854465,348.715851 43.818817,353.430573 45.909904,358.825165 
	C50.437389,365.872375 56.699486,370.805908 64.104584,374.663086 
	C79.561295,382.714264 96.335876,384.932373 113.303581,385.976715 
	C134.231567,387.264801 154.737762,383.838898 175.539185,379.673676 
	C178.396362,380.885315 181.024292,381.450867 182.587128,377.123230 
	C183.330124,376.725555 184.073120,376.327881 185.562790,375.872894 
	C185.987701,375.091309 186.412628,374.309753 187.006226,372.941284 
	C188.012314,371.963470 189.018387,370.985657 190.810318,370.002075 
	C195.422943,368.846985 196.053558,365.384277 196.355591,361.115295 
	C197.407227,361.024963 198.458878,360.934631 200.314621,360.962830 
	C203.302444,361.579895 206.692337,363.048767 206.968979,357.207794 
	C207.033707,356.790680 207.098419,356.373535 207.437302,355.692535 
	C207.192169,355.496460 206.947037,355.300354 205.954208,355.149078 
	C204.961166,355.075836 203.968124,355.002594 202.473831,354.403839 
	C199.252228,353.820129 195.643753,353.688507 196.690735,348.749054 
	C197.128479,348.841370 197.566208,348.933685 198.170914,349.351776 
	C198.444489,349.259766 198.718063,349.167755 199.903717,348.955261 
	C203.281921,349.006256 206.660110,349.057281 210.480637,349.571014 
	C211.130905,348.564453 211.781189,347.557861 212.533066,346.543182 
	C212.533066,346.543182 212.533264,346.441254 213.401917,346.765594 
	C214.995529,347.685883 216.589157,348.606171 217.843445,349.921417 
	C217.266510,350.293060 216.689590,350.664703 215.618835,351.235443 
	C215.427658,351.526062 215.236481,351.816681 215.030045,352.030731 
	C215.030045,352.030731 215.107742,352.038116 214.572678,352.325348 
M180.094269,396.019745 
	C180.094269,396.019745 180.163788,396.101166 179.505936,396.105469 
	C179.372330,397.136963 179.238708,398.168427 179.043518,399.981964 
	C176.711487,412.481232 174.379471,424.980499 171.953796,437.981720 
	C183.215454,435.282898 192.741882,430.924469 201.550156,423.687347 
	C210.565628,416.245575 216.505539,406.921661 219.099762,395.457825 
	C220.313080,390.096130 221.299179,384.995941 214.870026,382.092957 
	C214.380478,381.871948 214.175186,381.021332 213.879974,379.736969 
	C213.267639,379.157745 212.655304,378.578491 211.417725,377.941010 
	C210.688492,378.330902 209.959259,378.720825 208.477356,378.949005 
	C207.933228,378.173676 207.389099,377.398376 207.192383,376.005920 
	C211.426132,372.137939 206.817200,368.860474 206.855392,364.278564 
	C202.430405,367.547699 198.733139,370.279175 194.575729,373.228271 
	C194.390213,373.505707 194.204697,373.783142 193.688828,374.635498 
	C191.138901,377.762817 188.588974,380.890167 185.279114,384.007629 
	C179.977768,383.775665 183.767426,387.394867 183.088562,389.013855 
	C183.088562,389.013855 183.162140,389.105865 182.425903,389.106049 
	C180.177490,389.934418 178.962311,391.045929 181.226959,393.605316 
	C181.226959,393.605316 180.969284,394.007874 180.476883,394.372864 
	C180.352463,394.957367 180.228043,395.541901 180.094269,396.019745 
M176.742828,384.474731 
	C176.498016,384.619934 176.253204,384.765106 175.349457,385.312683 
	C166.618393,387.188568 157.887314,389.064423 149.156250,390.940308 
	C156.502380,393.289551 163.781281,394.660858 171.092865,395.827393 
	C172.173325,395.999756 173.408356,395.203186 175.390854,394.836060 
	C175.916519,392.865906 176.442169,390.895752 177.080109,388.220306 
	C177.042404,387.055969 177.004700,385.891632 176.742828,384.474731 
M125.738472,104.684822 
	C135.305710,101.262909 144.872955,97.840996 154.919617,94.247597 
	C145.819702,85.595779 137.356461,76.877159 128.173996,68.996582 
	C117.729988,60.033310 106.722252,51.716122 95.799561,43.326408 
	C91.082451,39.703213 86.354210,40.540405 81.651291,44.089657 
	C71.558861,51.706326 64.234322,61.473499 59.187374,72.891762 
	C46.185722,102.306839 44.672543,133.389069 46.375965,164.883743 
	C46.493992,167.066010 46.870178,169.234299 47.181332,171.876266 
	C51.678955,164.887512 55.786350,158.505112 60.458298,151.712204 
	C65.929428,145.921112 71.085632,139.787704 76.934349,134.407043 
	C91.021400,121.447311 107.521698,112.242958 125.738472,104.684822 
M393.231384,152.779572 
	C397.173157,158.599792 401.114960,164.419998 405.509247,170.908356 
	C405.986206,169.233871 406.208282,168.766541 406.243652,168.285461 
	C408.297485,140.347580 407.327332,112.634117 398.712860,85.722366 
	C393.349731,68.967979 385.142517,53.938362 370.169495,43.491051 
	C365.734467,40.396561 361.479858,39.956871 357.302551,43.109306 
	C347.495422,50.510315 337.565430,57.802547 328.282074,65.829147 
	C317.871552,74.830292 308.118317,84.591606 297.881378,94.207855 
	C308.407379,97.886322 318.234222,101.320473 328.706482,105.102493 
	C353.788605,115.814034 375.863983,130.639572 393.231384,152.779572 
M226.379364,388.174957 
	C225.906693,391.711792 225.434021,395.248627 224.941483,398.934082 
	C230.264008,398.934082 235.190811,398.934082 240.156815,398.934082 
	C239.556381,394.288086 238.990891,389.912567 238.428665,385.562195 
	C234.086166,384.367462 230.018646,383.982452 226.379364,388.174957 
M296.717865,385.925476 
	C293.459503,385.237640 290.201172,384.549835 286.115448,383.687347 
	C287.930176,387.878998 289.295929,391.033600 290.932617,394.813904 
	C298.167877,393.167145 305.332214,391.536499 312.496552,389.905853 
	C312.487366,389.564178 312.478149,389.222473 312.468933,388.880768 
	C307.500061,387.931458 302.531189,386.982117 296.717865,385.925476 
z"/>
<path fill="#F9BF63" opacity="1.000000" stroke="none" 
	d="
M41.121349,291.952637 
	C41.139122,289.529755 41.156891,287.106842 41.139946,283.882629 
	C41.030731,279.062836 40.956230,275.044373 40.881725,271.025909 
	C42.020901,241.267258 48.860096,212.710327 59.965778,185.233429 
	C71.485588,156.731964 93.259605,138.060440 120.323036,124.929955 
	C155.714279,107.759018 193.410767,102.024658 232.345947,102.581772 
	C263.423065,103.026436 293.639709,108.058441 322.401550,120.196846 
	C346.880402,130.527710 368.461090,144.766617 383.603668,167.300049 
	C393.319397,181.757874 398.236725,198.208908 402.960724,214.676178 
	C409.184937,236.373093 412.361267,258.484039 412.300507,281.165955 
	C412.273285,291.325165 409.730988,298.937622 400.239532,303.429169 
	C399.204102,303.919159 398.338867,304.768646 396.845947,305.775604 
	C384.516785,312.294037 372.736328,318.488281 360.637543,324.484406 
	C356.374756,323.871857 352.439056,323.309265 348.483887,323.074677 
	C340.866547,322.622833 333.138733,323.011444 325.635895,321.871796 
	C311.670013,319.750549 300.023560,313.473602 293.983246,299.853149 
	C290.622223,292.274292 287.962036,284.385010 284.972870,276.640717 
	C279.565369,262.631042 270.872162,251.825623 255.841080,247.522507 
	C239.738419,242.912613 223.521347,242.705276 207.161346,246.418213 
	C190.154175,250.278000 179.710831,261.029114 173.911041,276.976349 
	C171.697342,283.063202 169.526871,289.170959 167.107178,295.176697 
	C161.514511,309.057739 151.845947,318.673615 136.738754,320.913330 
	C126.293564,322.461884 115.597931,322.251740 105.042099,323.153839 
	C99.986809,323.585876 94.996231,324.774933 89.641754,325.604858 
	C78.426445,320.029968 67.374771,314.776093 56.726406,308.803253 
	C49.877579,304.961670 41.806030,301.726990 41.121349,291.952637 
M149.265808,285.519928 
	C151.534698,273.065918 145.113113,262.611511 133.595993,260.009369 
	C122.465218,257.494507 111.222816,264.546478 108.406502,275.809906 
	C105.797989,286.242279 112.122612,297.193146 122.695175,300.550323 
	C133.801254,304.076904 145.057693,298.009064 149.265808,285.519928 
M309.997681,283.993195 
	C310.369629,285.269073 310.638214,286.586395 311.130219,287.814148 
	C314.496979,296.214661 320.696075,300.804169 329.758331,301.272644 
	C338.384979,301.718597 346.393158,297.211151 349.655548,289.670227 
	C353.179932,281.523956 352.306946,273.692230 346.499542,266.751648 
	C340.972656,260.146332 331.539459,257.874634 323.332611,260.994171 
	C314.151947,264.483856 309.567963,272.046844 309.997681,283.993195 
M342.859711,215.819122 
	C343.953918,206.492355 340.290253,199.712585 330.901123,197.548996 
	C325.002838,196.189789 318.868622,195.879486 312.860107,194.967682 
	C304.587372,193.712280 298.854370,201.774643 298.028809,208.022446 
	C297.046600,215.455841 301.967041,222.262543 309.682098,224.100372 
	C313.859802,225.095551 318.055695,226.054382 322.286194,226.779984 
	C331.983978,228.443314 338.429260,225.149048 342.859711,215.819122 
M110.446091,214.777710 
	C112.262177,224.156479 121.160141,228.002441 128.350937,226.866074 
	C133.257111,226.090714 138.144531,225.174774 143.012589,224.185181 
	C150.840668,222.593872 155.659180,216.173843 154.965485,208.431686 
	C154.241180,200.347565 148.234512,194.710480 139.841354,195.096649 
	C133.918625,195.369156 127.930031,196.174469 122.170547,197.567551 
	C113.675148,199.622375 109.970779,205.174347 110.446091,214.777710 
z"/>
<path fill="#FCF3D0" opacity="1.000000" stroke="none" 
	d="
M89.976349,325.621155 
	C94.996231,324.774933 99.986809,323.585876 105.042099,323.153839 
	C115.597931,322.251740 126.293564,322.461884 136.738754,320.913330 
	C151.845947,318.673615 161.514511,309.057739 167.107178,295.176697 
	C169.526871,289.170959 171.697342,283.063202 173.911041,276.976349 
	C179.710831,261.029114 190.154175,250.278000 207.161346,246.418213 
	C223.521347,242.705276 239.738419,242.912613 255.841080,247.522507 
	C270.872162,251.825623 279.565369,262.631042 284.972870,276.640717 
	C287.962036,284.385010 290.622223,292.274292 293.983246,299.853149 
	C300.023560,313.473602 311.670013,319.750549 325.635895,321.871796 
	C333.138733,323.011444 340.866547,322.622833 348.483887,323.074677 
	C352.439056,323.309265 356.374756,323.871857 360.295898,324.646606 
	C341.233521,332.919464 321.549408,338.666931 301.240417,342.149200 
	C288.845184,344.274536 276.373474,345.954102 263.936127,347.833862 
	C262.555695,347.856873 261.175293,347.879852 259.001373,347.947876 
	C256.348083,347.314789 254.484329,346.647308 252.629333,345.956329 
	C249.084244,344.635803 245.544128,343.301910 242.001953,341.973511 
	C240.924118,341.976135 239.846283,341.978729 238.013580,342.090820 
	C233.915939,344.087585 230.604782,343.850250 226.969498,342.750305 
	C221.582367,341.120239 216.603226,342.307404 212.533264,346.441254 
	C212.533264,346.441254 212.533066,346.543182 212.231964,346.702637 
	C211.300034,347.610840 210.669189,348.359558 210.038330,349.108276 
	C206.660110,349.057281 203.281921,349.006256 199.204544,348.928101 
	C198.338226,348.942657 198.171082,348.984344 198.003937,349.026001 
	C197.566208,348.933685 197.128479,348.841370 196.090637,348.655518 
	C194.660995,348.525513 193.831451,348.489014 192.569489,348.320190 
	C189.433594,348.098236 186.730103,348.008667 183.796646,347.777283 
	C183.043472,347.647034 182.520264,347.658539 181.596329,347.480164 
	C179.132996,347.185394 177.070389,347.080536 174.784149,346.823761 
	C174.038132,346.648590 173.515778,346.625336 172.645508,346.427490 
	C171.526031,346.214844 170.754456,346.176819 169.748688,346.025787 
	C169.344818,345.948334 169.175140,345.983856 168.774078,345.897064 
	C168.373123,345.815857 168.203568,345.857025 167.689728,345.718536 
	C165.230225,345.355499 163.114975,345.172180 160.692200,344.826294 
	C159.248138,344.512024 158.111588,344.360291 156.745483,344.092957 
	C156.347031,344.006470 156.178177,344.035614 155.643677,343.896545 
	C151.837143,343.217529 148.396225,342.706787 144.596237,342.040771 
	C142.948517,341.570526 141.641632,341.315704 140.373978,340.931458 
	C123.571556,335.838623 106.774635,330.727631 89.976349,325.621155 
M238.647461,269.563873 
	C233.268311,269.329742 227.785019,268.345947 222.539612,269.074646 
	C217.405090,269.787903 213.568146,273.412659 212.336288,278.845581 
	C211.112442,284.243134 213.707047,288.103668 217.731232,291.360321 
	C218.646118,292.100708 219.925049,293.571533 219.708359,294.323486 
	C218.821228,297.402008 218.179901,301.427887 215.963837,302.964844 
	C214.245285,304.156677 209.993973,302.798370 207.449585,301.464874 
	C202.388168,298.812134 197.901321,299.079895 195.135941,303.132446 
	C192.416473,307.117798 193.506622,312.112885 198.036896,315.277069 
	C208.530075,322.606201 219.059341,322.565094 229.489914,315.006378 
	C230.397369,315.598602 231.226166,316.149963 232.065094,316.685425 
	C241.434967,322.665802 253.341309,321.834259 261.731079,314.616241 
	C265.510193,311.364929 266.265778,306.799774 263.641632,303.072754 
	C260.982117,299.295502 256.530273,298.568756 252.183701,301.067505 
	C250.339935,302.127380 248.433960,303.286713 246.405945,303.769592 
	C243.405609,304.483948 241.118835,303.104767 240.399078,300.009735 
	C239.746140,297.201996 237.226746,294.430786 240.853195,291.527283 
	C249.849335,284.324493 249.186325,276.229767 238.647461,269.563873 
z"/>
<path fill="#F4BD65" opacity="1.000000" stroke="none" 
	d="
M328.061066,104.754608 
	C318.234222,101.320473 308.407379,97.886322 297.881378,94.207855 
	C308.118317,84.591606 317.871552,74.830292 328.282074,65.829147 
	C337.565430,57.802547 347.495422,50.510315 357.302551,43.109306 
	C361.479858,39.956871 365.734467,40.396561 370.169495,43.491051 
	C385.142517,53.938362 393.349731,68.967979 398.712860,85.722366 
	C407.327332,112.634117 408.297485,140.347580 406.243652,168.285461 
	C406.208282,168.766541 405.986206,169.233871 405.509247,170.908356 
	C401.114960,164.419998 397.173157,158.599792 393.456970,152.156616 
	C395.001404,134.125626 393.063446,116.996117 387.937988,100.400177 
	C385.876190,93.724205 382.350067,87.288826 378.441193,81.445831 
	C372.929047,73.206245 365.055511,71.870819 357.564148,78.084885 
	C347.369934,86.540970 337.862823,95.825386 328.061066,104.754608 
z"/>
<path fill="#F4BC65" opacity="1.000000" stroke="none" 
	d="
M59.893753,152.122711 
	C55.786350,158.505112 51.678955,164.887512 47.181332,171.876266 
	C46.870178,169.234299 46.493992,167.066010 46.375965,164.883743 
	C44.672543,133.389069 46.185722,102.306839 59.187374,72.891762 
	C64.234322,61.473499 71.558861,51.706326 81.651291,44.089657 
	C86.354210,40.540405 91.082451,39.703213 95.799561,43.326408 
	C106.722252,51.716122 117.729988,60.033310 128.173996,68.996582 
	C137.356461,76.877159 145.819702,85.595779 154.919617,94.247597 
	C144.872955,97.840996 135.305710,101.262909 125.305717,104.407806 
	C122.872231,102.189323 120.925606,100.188126 118.860947,98.317200 
	C111.727951,91.853477 104.757034,85.188606 97.335876,79.071686 
	C90.468498,73.411224 82.899246,72.668648 78.391273,77.435585 
	C74.358742,81.699776 70.658516,86.618340 68.108170,91.876961 
	C61.781796,104.921455 60.308472,119.241623 59.186661,133.464539 
	C58.700607,139.626999 59.615311,145.899948 59.893753,152.122711 
z"/>
<path fill="#E6B23E" opacity="1.000000" stroke="none" 
	d="
M45.783157,358.145294 
	C43.818817,353.430573 41.854465,348.715851 39.890118,344.001129 
	C40.334503,343.734894 40.778893,343.468628 41.223278,343.202362 
	C42.495041,344.085205 43.766804,344.968079 45.546516,346.284058 
	C63.111897,359.961212 82.581856,366.561920 104.017937,367.620331 
	C106.260361,367.731049 108.537941,367.129791 110.799217,366.858856 
	C110.886330,366.218140 110.973450,365.577393 111.060570,364.936676 
	C102.880943,357.359161 93.002884,353.043030 81.969055,350.548553 
	C80.626320,349.880371 79.190666,349.750275 78.078011,349.082245 
	C72.156418,345.526794 66.089302,342.150421 60.500767,338.118530 
	C52.369053,332.251770 43.518768,326.738312 40.010445,316.629303 
	C38.767193,313.046967 39.329025,308.838226 39.383942,305.039856 
	C67.028511,324.675018 97.297310,337.492432 130.303497,344.943787 
	C131.547394,345.091919 132.460175,345.130554 133.557999,345.432190 
	C134.155716,345.773560 134.568405,345.851929 135.232452,346.047760 
	C135.849457,346.155334 136.215134,346.145447 136.887695,346.403015 
	C143.453552,347.745697 149.712524,348.820923 156.328613,350.001404 
	C158.146332,350.314423 159.606918,350.522186 161.451965,350.855438 
	C164.551331,351.292938 167.266220,351.604950 170.340302,352.026062 
	C171.933273,352.144592 173.167068,352.154022 174.642670,352.420166 
	C175.575180,352.728088 176.265854,352.779358 177.284454,352.936523 
	C178.069489,353.039429 178.526611,353.036438 179.318359,353.238617 
	C182.102783,353.686432 184.552551,353.929077 187.270462,354.406799 
	C188.471405,354.611420 189.404205,354.580933 190.685913,354.536133 
	C191.724533,354.626984 192.414276,354.732056 192.879944,355.149078 
	C186.293121,356.652802 179.916443,357.776611 173.576141,359.077698 
	C171.665054,359.469879 169.855011,360.354462 167.573456,361.021790 
	C159.828369,359.825439 152.525970,358.488068 145.174805,357.521484 
	C143.592651,357.313477 141.834488,358.444214 139.880432,359.123779 
	C140.565643,360.587921 141.254639,362.445038 142.543625,363.075531 
	C145.796631,364.666565 149.263031,365.898987 152.748016,366.919708 
	C157.865631,368.418640 163.073914,369.608124 168.243576,370.929443 
	C168.264877,371.523010 168.286179,372.116577 168.307495,372.710144 
	C152.036713,374.828979 135.806320,377.383606 119.479355,378.895935 
	C110.333946,379.743042 100.997238,379.302246 91.803635,378.645294 
	C81.425636,377.903687 72.869354,372.511993 64.325676,366.869415 
	C58.684708,363.143921 52.000343,360.998291 45.783157,358.145294 
z"/>
<path fill="#E7B33D" opacity="1.000000" stroke="none" 
	d="
M401.076660,310.036072 
	C406.126923,306.383209 411.177216,302.730316 416.837463,299.166016 
	C418.165985,308.156525 415.692261,316.257202 410.837952,323.579987 
	C403.670898,334.391571 393.617859,341.759369 381.938416,347.129547 
	C380.100433,347.974640 378.592682,349.537933 376.587860,350.911346 
	C371.479584,353.027344 366.715698,355.001129 361.595764,356.965546 
	C360.621765,357.242157 360.003815,357.528168 358.383362,358.278229 
	C376.381317,363.401886 390.830078,355.125153 406.790802,349.239502 
	C402.853943,357.002502 398.115967,362.304230 391.461487,365.759521 
	C376.260498,373.652496 359.648468,376.530029 342.942993,376.670074 
	C327.987000,376.795502 313.008972,374.298798 298.208588,372.719788 
	C299.251648,372.078735 300.126831,371.676880 301.464417,371.232300 
	C306.288025,371.185822 310.649170,371.182037 315.294556,371.419189 
	C318.389465,371.077393 321.200165,370.494690 324.293762,369.814453 
	C325.164154,369.707550 325.751587,369.698212 326.760986,369.775513 
	C331.162720,369.262878 335.662628,368.520874 335.800507,363.620605 
	C335.948212,358.370636 330.774170,359.117157 327.419586,358.037567 
	C326.974823,357.894440 326.439575,358.032501 325.516327,358.037567 
	C317.015717,358.341400 308.946075,358.679932 300.874023,358.946686 
	C290.494995,359.289612 280.393311,358.147003 271.471985,353.034424 
	C293.718994,350.343048 315.344910,346.684387 336.405182,340.194031 
	C359.348877,333.123322 381.419312,324.162445 401.076660,310.036072 
z"/>
<path fill="#FCF4CE" opacity="1.000000" stroke="none" 
	d="
M60.176025,151.917450 
	C59.615311,145.899948 58.700607,139.626999 59.186661,133.464539 
	C60.308472,119.241623 61.781796,104.921455 68.108170,91.876961 
	C70.658516,86.618340 74.358742,81.699776 78.391273,77.435585 
	C82.899246,72.668648 90.468498,73.411224 97.335876,79.071686 
	C104.757034,85.188606 111.727951,91.853477 118.860947,98.317200 
	C120.925606,100.188126 122.872231,102.189323 124.956703,104.449631 
	C107.521698,112.242958 91.021400,121.447311 76.934349,134.407043 
	C71.085632,139.787704 65.929428,145.921112 60.176025,151.917450 
z"/>
<path fill="#FCF4CE" opacity="1.000000" stroke="none" 
	d="
M328.383789,104.928551 
	C337.862823,95.825386 347.369934,86.540970 357.564148,78.084885 
	C365.055511,71.870819 372.929047,73.206245 378.441193,81.445831 
	C382.350067,87.288826 385.876190,93.724205 387.937988,100.400177 
	C393.063446,116.996117 395.001404,134.125626 393.372559,151.835724 
	C375.863983,130.639572 353.788605,115.814034 328.383789,104.928551 
z"/>
<path fill="#C58525" opacity="1.000000" stroke="none" 
	d="
M298.040680,372.959015 
	C313.008972,374.298798 327.987000,376.795502 342.942993,376.670074 
	C359.648468,376.530029 376.260498,373.652496 391.461487,365.759521 
	C398.115967,362.304230 402.853943,357.002502 406.790802,349.239502 
	C390.830078,355.125153 376.381317,363.401886 358.383362,358.278229 
	C360.003815,357.528168 360.621765,357.242157 361.846069,357.218262 
	C379.219330,354.537109 394.865997,348.737885 409.047424,339.203217 
	C411.836884,337.443817 414.626343,335.684448 417.886139,333.628418 
	C418.587219,341.952972 417.102814,349.640350 412.837494,356.739899 
	C405.369995,369.169403 393.153503,374.862854 380.107483,378.864624 
	C358.883850,385.374725 337.140991,385.560150 315.337982,382.584778 
	C306.157410,381.332001 297.073212,379.372925 287.312012,377.513763 
	C286.116760,377.211487 285.554688,377.130371 284.992615,377.049255 
	C284.625092,376.972870 284.257538,376.896515 283.374634,376.619019 
	C282.245392,376.294189 281.631500,376.170532 281.017639,376.046844 
	C279.947998,375.505981 278.878357,374.965118 277.434937,374.636902 
	C277.061157,374.849548 277.110413,374.752655 277.110413,374.752655 
	C276.040283,372.906525 274.970154,371.060364 273.566101,368.750061 
	C273.204651,367.898102 273.177124,367.510376 273.149597,367.122620 
	C273.149597,367.122620 273.051910,367.162750 273.478882,367.198853 
	C277.947937,368.067017 281.989990,368.899078 286.242126,370.072021 
	C290.315033,371.261627 294.177856,372.110321 298.040680,372.959015 
z"/>
<path fill="#E3B03F" opacity="1.000000" stroke="none" 
	d="
M195.035889,373.010651 
	C198.733139,370.279175 202.430405,367.547699 206.855392,364.278564 
	C206.817200,368.860474 211.426132,372.137939 206.710083,376.462830 
	C199.118286,383.835419 193.100128,391.553040 189.701004,400.961639 
	C188.403656,404.552673 186.307541,408.850952 190.908585,411.681488 
	C193.652313,413.369385 197.965576,409.784790 200.092163,404.525604 
	C200.147202,404.389496 200.065796,404.198181 200.024445,404.016083 
	C200.000870,403.999542 200.037598,404.043610 200.312958,404.002838 
	C200.789505,403.654419 200.990677,403.346771 201.520767,402.969055 
	C204.831940,399.003174 207.814178,395.107330 210.796432,391.211517 
	C210.199722,400.750031 208.353821,409.533295 203.004639,417.257477 
	C201.763107,419.050293 201.563416,421.564606 200.884338,423.746918 
	C192.741882,430.924469 183.215454,435.282898 171.953796,437.981720 
	C174.379471,424.980499 176.711487,412.481232 179.309998,399.347839 
	C179.772232,397.842896 179.968002,396.972015 180.163788,396.101166 
	C180.163788,396.101166 180.094269,396.019745 180.339127,395.887115 
	C180.712418,395.172272 180.840866,394.590088 180.969299,394.007874 
	C180.969284,394.007874 181.226959,393.605316 181.506393,393.148254 
	C182.244598,391.496063 182.703384,390.300964 183.162140,389.105865 
	C183.162140,389.105865 183.088562,389.013855 183.367615,388.878601 
	C184.444122,387.168091 185.241592,385.592804 186.039062,384.017517 
	C188.588974,380.890167 191.138901,377.762817 194.109344,374.273987 
	C194.698547,373.611847 194.867218,373.311249 195.035889,373.010651 
z"/>
<path fill="#C58625" opacity="1.000000" stroke="none" 
	d="
M45.846527,358.485229 
	C52.000343,360.998291 58.684708,363.143921 64.325676,366.869415 
	C72.869354,372.511993 81.425636,377.903687 91.803635,378.645294 
	C100.997238,379.302246 110.333946,379.743042 119.479355,378.895935 
	C135.806320,377.383606 152.036713,374.828979 168.307495,372.710144 
	C168.286179,372.116577 168.264877,371.523010 168.243576,370.929443 
	C163.073914,369.608124 157.865631,368.418640 152.748016,366.919708 
	C149.263031,365.898987 145.796631,364.666565 142.543625,363.075531 
	C141.254639,362.445038 140.565643,360.587921 140.258438,359.136292 
	C157.716568,364.108551 174.815582,367.200165 193.290039,365.786682 
	C191.772446,367.748352 190.898453,368.878082 190.024475,370.007843 
	C189.018387,370.985657 188.012314,371.963470 186.630859,373.390869 
	C185.775711,374.537048 185.295914,375.233643 184.816132,375.930206 
	C184.073120,376.327881 183.330124,376.725555 181.940338,377.211731 
	C179.219208,377.943756 177.144897,378.587280 175.070587,379.230835 
	C154.737762,383.838898 134.231567,387.264801 113.303581,385.976715 
	C96.335876,384.932373 79.561295,382.714264 64.104584,374.663086 
	C56.699486,370.805908 50.437389,365.872375 45.846527,358.485229 
z"/>
<path fill="#E5B140" opacity="1.000000" stroke="none" 
	d="
M279.828583,385.044983 
	C283.052673,395.429443 286.644623,405.718567 289.369659,416.232391 
	C291.142456,423.072144 291.653137,430.239044 292.813324,437.807953 
	C291.203613,437.282806 289.884125,436.852325 288.132751,435.928680 
	C286.908600,434.856720 286.145691,434.231842 285.319641,433.706177 
	C274.345825,426.722778 263.972778,418.998138 257.706787,407.245392 
	C255.347549,402.820282 254.279343,397.706879 252.622604,392.907227 
	C252.966187,392.837433 253.309784,392.767639 253.653381,392.697815 
	C256.716217,395.461609 259.779083,398.225372 262.968750,401.310730 
	C265.595398,404.261780 268.095245,406.891235 270.595123,409.520691 
	C271.109802,409.246765 271.624512,408.972839 272.139191,408.698914 
	C272.358582,407.156769 273.187531,405.379181 272.697693,404.110962 
	C269.682556,396.304901 266.259247,388.657196 263.200348,380.867004 
	C261.559509,376.688232 255.487701,375.532990 256.020264,369.995728 
	C256.406158,369.146454 257.163422,368.274139 257.112457,367.451996 
	C256.912292,364.224792 258.382172,364.730469 260.754944,366.268982 
	C261.828308,366.763794 262.413574,366.838104 262.998810,366.912415 
	C265.770325,369.567413 268.541840,372.222412 271.747131,375.319153 
	C273.432251,376.880890 274.683563,378.000824 275.934875,379.120758 
	C276.045654,379.679230 276.156433,380.237701 276.661865,381.167114 
	C277.347778,381.738007 277.639008,381.937958 277.930237,382.137878 
	C277.930237,382.137878 277.918427,382.048157 277.923737,382.381958 
	C278.562225,383.492188 279.195404,384.268585 279.828583,385.044983 
z"/>
<path fill="#C58525" opacity="1.000000" stroke="none" 
	d="
M39.066795,304.915436 
	C39.329025,308.838226 38.767193,313.046967 40.010445,316.629303 
	C43.518768,326.738312 52.369053,332.251770 60.500767,338.118530 
	C66.089302,342.150421 72.156418,345.526794 78.078011,349.082245 
	C79.190666,349.750275 80.626320,349.880371 81.774849,350.761047 
	C89.708168,355.331146 97.779564,359.398926 105.850960,363.466705 
	C105.632584,363.886841 105.414207,364.306976 105.195831,364.727142 
	C84.011566,363.632446 65.041695,356.513397 48.192425,343.625153 
	C40.290062,337.103394 33.357033,329.771088 28.930462,320.377411 
	C25.341660,312.761597 23.498913,305.078064 28.138453,297.012085 
	C30.608120,298.017731 32.821724,298.919128 35.438961,300.305542 
	C36.917328,302.165527 37.992062,303.540497 39.066795,304.915436 
z"/>
<path fill="#4D1909" opacity="1.000000" stroke="none" 
	d="
M400.710999,309.989410 
	C381.419312,324.162445 359.348877,333.123322 336.405182,340.194031 
	C315.344910,346.684387 293.718994,350.343048 271.145020,352.999573 
	C268.938324,353.150513 267.473938,353.248138 266.009552,353.345764 
	C265.458344,351.722290 264.907135,350.098785 264.146057,348.154602 
	C276.373474,345.954102 288.845184,344.274536 301.240417,342.149200 
	C321.549408,338.666931 341.233521,332.919464 360.614197,324.844757 
	C372.736328,318.488281 384.516785,312.294037 396.644592,306.040527 
	C398.109741,307.301758 399.227539,308.622253 400.710999,309.989410 
z"/>
<path fill="#4D1909" opacity="1.000000" stroke="none" 
	d="
M39.383942,305.039856 
	C37.992062,303.540497 36.917328,302.165527 35.752357,300.462433 
	C37.262737,299.989227 38.863358,299.844208 39.495106,299.786957 
	C39.869564,296.887512 40.166985,294.584595 40.792877,292.117157 
	C41.806030,301.726990 49.877579,304.961670 56.726406,308.803253 
	C67.374771,314.776093 78.426445,320.029968 89.641754,325.604858 
	C106.774635,330.727631 123.571556,335.838623 140.373978,340.931458 
	C141.641632,341.315704 142.948517,341.570526 144.314087,342.284790 
	C140.509155,342.247131 136.618683,341.874237 132.748260,341.352600 
	C129.734772,340.946472 128.472122,341.737915 129.972382,344.834259 
	C97.297310,337.492432 67.028511,324.675018 39.383942,305.039856 
z"/>
<path fill="#C48527" opacity="1.000000" stroke="none" 
	d="
M262.841919,400.989136 
	C259.779083,398.225372 256.716217,395.461609 253.653381,392.697815 
	C253.309784,392.767639 252.966187,392.837433 252.622604,392.907227 
	C254.279343,397.706879 255.347549,402.820282 257.706787,407.245392 
	C263.972778,418.998138 274.345825,426.722778 285.319641,433.706177 
	C286.145691,434.231842 286.908600,434.856720 287.835266,435.751190 
	C270.698517,431.452789 257.542542,421.616821 249.055283,404.999634 
	C248.602585,404.135529 248.371887,403.846619 248.141174,403.557678 
	C248.141174,403.557678 248.200684,403.263458 248.122589,402.767639 
	C247.415192,400.708069 246.785889,399.144287 246.156586,397.580505 
	C246.126022,396.923065 246.095459,396.265625 246.016205,394.875427 
	C245.063232,389.291199 243.042496,384.156372 249.274323,381.116486 
	C249.274323,381.116486 249.659637,381.016571 250.117340,380.800201 
	C251.428345,379.422729 252.281647,378.261627 253.134949,377.100555 
	C253.134964,377.100555 253.014374,377.050385 253.404846,377.072449 
	C262.608002,384.030640 266.509125,393.639923 269.435577,404.349060 
	C266.750763,402.980957 264.796356,401.985046 262.841919,400.989136 
z"/>
<path fill="#C38425" opacity="1.000000" stroke="none" 
	d="
M376.932220,350.769165 
	C378.592682,349.537933 380.100433,347.974640 381.938416,347.129547 
	C393.617859,341.759369 403.670898,334.391571 410.837952,323.579987 
	C415.692261,316.257202 418.165985,308.156525 417.122620,298.986084 
	C419.808685,295.944397 422.819641,293.171204 426.170166,290.085266 
	C431.497986,298.048065 430.461121,306.086456 427.340790,314.149689 
	C423.812164,323.267883 417.328552,329.958923 408.777191,335.658203 
	C397.808075,340.937744 387.370148,345.853455 376.932220,350.769165 
z"/>
<path fill="#C48527" opacity="1.000000" stroke="none" 
	d="
M265.857208,353.339111 
	C267.473938,353.248138 268.938324,353.150513 270.729645,353.087708 
	C280.393311,358.147003 290.494995,359.289612 300.874023,358.946686 
	C308.946075,358.679932 317.015717,358.341400 325.536041,358.337128 
	C326.008301,359.039917 326.030945,359.440369 325.599976,359.903687 
	C322.008057,359.966614 318.869751,359.966614 315.731476,359.966614 
	C315.718781,360.525085 315.706116,361.083557 315.693420,361.642029 
	C318.360016,361.759460 321.036346,361.773590 323.690308,362.024323 
	C326.195282,362.260986 328.676758,362.746582 331.168579,363.122711 
	C322.703583,367.558289 313.964447,368.547638 305.220795,367.447296 
	C291.432190,365.712189 277.733521,363.262817 263.996765,361.115784 
	C263.554840,360.796112 263.112915,360.476501 262.278992,359.858704 
	C261.665955,359.300140 261.384766,359.176514 261.043518,359.189636 
	C261.043518,359.189636 260.632172,358.987427 260.205811,358.718079 
	C259.211792,358.197266 258.644104,357.945770 258.076447,357.694275 
	C258.076447,357.694275 258.037292,357.302612 257.966064,356.762451 
	C257.962158,355.494019 258.029510,354.765717 258.096893,354.037415 
	C258.836334,354.036041 259.575745,354.034698 261.056152,354.010742 
	C263.020172,353.706207 264.243225,353.424316 265.466248,353.142426 
	C265.466248,353.142426 265.704865,353.332428 265.857208,353.339111 
z"/>
<path fill="#C58526" opacity="1.000000" stroke="none" 
	d="
M201.217255,423.717133 
	C201.563416,421.564606 201.763107,419.050293 203.004639,417.257477 
	C208.353821,409.533295 210.199722,400.750031 210.796432,391.211517 
	C207.814178,395.107330 204.831940,399.003174 201.330200,402.738281 
	C200.552994,403.066254 200.295288,403.554932 200.037598,404.043610 
	C200.037598,404.043610 200.000870,403.999542 199.711227,403.846405 
	C198.962646,403.810211 198.503708,403.927124 197.893677,403.876587 
	C197.506653,404.155396 197.270737,404.601624 197.016602,405.025116 
	C196.998367,405.002380 197.046494,405.034607 196.616608,405.018311 
	C195.033798,404.983002 193.880875,404.964020 192.781540,404.559387 
	C193.514313,402.323242 193.839355,400.224030 194.934204,398.665588 
	C199.574905,392.059784 204.444260,385.614624 209.230042,379.110748 
	C209.959259,378.720825 210.688492,378.330902 211.785110,378.284302 
	C212.714249,379.239502 213.276001,379.851440 213.837769,380.463379 
	C214.175186,381.021332 214.380478,381.871948 214.870026,382.092957 
	C221.299179,384.995941 220.313080,390.096130 219.099762,395.457825 
	C216.505539,406.921661 210.565628,416.245575 201.217255,423.717133 
z"/>
<path fill="#C48526" opacity="1.000000" stroke="none" 
	d="
M236.018585,379.092712 
	C236.018585,379.092712 235.600525,378.950745 235.244858,378.767395 
	C234.656830,378.352814 234.379929,378.269073 234.058487,378.332794 
	C233.883011,378.271088 233.707550,378.209412 232.925873,378.069946 
	C231.731216,378.270172 231.142792,378.548218 230.554352,378.826294 
	C229.552368,379.152435 228.550385,379.478577 226.868134,379.947296 
	C224.138657,379.694214 222.089417,379.298523 220.040161,378.902832 
	C218.818237,377.121613 217.596298,375.340363 216.139725,372.995483 
	C215.643539,372.154602 215.382004,371.877319 215.120468,371.600037 
	C215.120468,371.600037 215.135529,371.276093 215.005920,370.844360 
	C214.626312,370.113922 214.376312,369.815186 214.126328,369.516449 
	C213.937958,368.481812 213.749588,367.447174 213.322754,365.794312 
	C212.957306,364.117401 212.830292,363.058777 212.703278,362.000122 
	C212.755234,361.231232 212.807205,360.462372 212.883636,359.003143 
	C212.894623,357.886414 212.881180,357.460052 212.867722,357.033661 
	C212.867722,357.033661 213.025482,356.572571 213.254395,356.275635 
	C213.483322,355.978729 213.946793,355.992798 214.275757,356.138916 
	C215.365646,357.895569 215.988480,359.591034 216.916092,361.099030 
	C218.886932,364.303040 220.763962,367.620422 223.161072,370.488831 
	C225.058121,372.758850 228.016403,373.150513 228.763306,369.603729 
	C229.758133,364.879608 229.733948,359.944489 230.218536,355.107117 
	C230.356964,353.725281 230.741562,352.368103 231.264038,350.971436 
	C231.674789,350.995514 231.834763,351.047760 231.995468,351.496552 
	C232.608795,353.596069 233.221390,355.299072 233.966339,357.299652 
	C234.075073,358.734497 234.051407,359.871735 233.820923,361.116760 
	C233.550659,361.597382 233.487228,361.970276 233.423798,362.343140 
	C233.642181,362.181000 233.860550,362.018860 234.400269,361.902374 
	C235.153229,361.979492 235.584824,362.010986 236.029205,362.458740 
	C236.014542,363.697388 235.854568,364.541534 235.985138,365.338043 
	C236.342590,367.518433 236.822342,369.678741 237.253662,371.847015 
	C239.500336,370.583923 242.204514,369.757141 243.905487,367.973602 
	C248.488968,363.167633 248.056519,356.830200 248.229126,350.761292 
	C248.668259,351.082916 249.107376,351.404510 249.847076,352.112122 
	C250.409485,352.702301 250.671295,352.906433 250.933105,353.110596 
	C250.933105,353.110596 250.892822,353.041016 250.872803,353.353394 
	C251.054306,354.178894 251.255814,354.691956 251.457336,355.205048 
	C251.562790,358.708923 251.668274,362.212799 251.585876,366.396606 
	C251.300613,367.708252 251.203247,368.339966 251.105896,368.971680 
	C250.756943,369.738190 250.408005,370.504730 249.798264,371.696899 
	C249.265427,372.341003 249.136795,372.624481 249.151611,372.972992 
	C249.151611,372.972992 248.962112,373.332367 248.706665,373.688568 
	C248.241730,374.346252 248.032257,374.647766 247.822784,374.949280 
	C246.385880,375.914154 244.948959,376.879028 242.999756,378.058167 
	C242.187653,378.416718 241.961258,378.636719 241.808334,378.932312 
	C241.808334,378.932312 241.379501,378.947815 240.939255,379.019684 
	C240.499008,379.091553 240.041794,379.248291 240.041794,379.248291 
	C239.574051,379.212921 239.106308,379.177551 237.977661,379.109558 
	C236.884033,379.082184 236.451309,379.087463 236.018585,379.092712 
z"/>
<path fill="#591F05" opacity="1.000000" stroke="none" 
	d="
M48.098152,344.017029 
	C65.041695,356.513397 84.011566,363.632446 105.195831,364.727142 
	C105.414207,364.306976 105.632584,363.886841 105.850960,363.466705 
	C97.779564,359.398926 89.708168,355.331146 81.830978,351.050903 
	C93.002884,353.043030 102.880943,357.359161 111.060570,364.936676 
	C110.973450,365.577393 110.886330,366.218140 110.799217,366.858856 
	C108.537941,367.129791 106.260361,367.731049 104.017937,367.620331 
	C82.581856,366.561920 63.111897,359.961212 45.838303,346.445099 
	C46.416050,345.584991 47.209961,344.996948 48.098152,344.017029 
z"/>
<path fill="#E6B23E" opacity="1.000000" stroke="none" 
	d="
M231.013275,350.999634 
	C230.741562,352.368103 230.356964,353.725281 230.218536,355.107117 
	C229.733948,359.944489 229.758133,364.879608 228.763306,369.603729 
	C228.016403,373.150513 225.058121,372.758850 223.161072,370.488831 
	C220.763962,367.620422 218.886932,364.303040 216.916092,361.099030 
	C215.988480,359.591034 215.365646,357.895569 214.292358,355.805847 
	C213.987976,354.884369 213.995941,354.442047 214.003906,353.999725 
	C214.003906,353.999725 214.188187,353.737762 214.396667,353.411530 
	C214.772675,352.736237 214.940216,352.387177 215.107742,352.038116 
	C215.107742,352.038116 215.030045,352.030731 215.294067,351.983276 
	C215.742950,351.635986 215.927795,351.336151 216.112656,351.036346 
	C216.689590,350.664703 217.266510,350.293060 218.388031,349.611389 
	C223.308380,347.385834 227.245010,348.593964 231.013275,350.999634 
z"/>
<path fill="#551A04" opacity="1.000000" stroke="none" 
	d="
M264.050568,361.477112 
	C277.733521,363.262817 291.432190,365.712189 305.220795,367.447296 
	C313.964447,368.547638 322.703583,367.558289 331.168579,363.122711 
	C328.676758,362.746582 326.195282,362.260986 323.690308,362.024323 
	C321.036346,361.773590 318.360016,361.759460 315.693420,361.642029 
	C315.706116,361.083557 315.718781,360.525085 315.731476,359.966614 
	C318.869751,359.966614 322.008057,359.966614 325.992706,359.959656 
	C327.927429,360.259064 329.070526,360.443695 330.090546,360.902161 
	C331.418976,361.499298 332.649719,362.313721 333.922485,363.034607 
	C332.913361,364.359772 332.078400,365.885284 330.847534,366.955414 
	C329.540466,368.091736 327.857758,368.795959 326.339050,369.688843 
	C325.751587,369.698212 325.164154,369.707550 323.875671,369.788757 
	C320.453186,370.299805 317.731781,370.739014 315.010345,371.178223 
	C310.649170,371.182037 306.288025,371.185822 301.035339,371.117676 
	C295.439880,370.607544 290.735992,370.169312 286.032074,369.731079 
	C281.989990,368.899078 277.947937,368.067017 273.531799,367.195312 
	C271.609863,366.204346 270.075867,365.229553 268.510132,364.308685 
	C267.059174,363.455261 265.574310,362.659546 264.050568,361.477112 
z"/>
<path fill="#E5B141" opacity="1.000000" stroke="none" 
	d="
M248.051208,350.483704 
	C248.056519,356.830200 248.488968,363.167633 243.905487,367.973602 
	C242.204514,369.757141 239.500336,370.583923 237.253662,371.847015 
	C236.822342,369.678741 236.342590,367.518433 235.985138,365.338043 
	C235.854568,364.541534 236.014542,363.697388 236.047699,362.048279 
	C236.053452,357.364410 236.053452,353.507233 236.053452,348.885529 
	C238.203949,348.598755 241.078827,348.215363 243.953690,347.831970 
	C245.260223,348.623352 246.566742,349.414703 248.051208,350.483704 
z"/>
<path fill="#4D1909" opacity="1.000000" stroke="none" 
	d="
M190.417389,370.004944 
	C190.898453,368.878082 191.772446,367.748352 193.290039,365.786682 
	C174.815582,367.200165 157.716568,364.108551 140.535416,358.970764 
	C141.834488,358.444214 143.592651,357.313477 145.174805,357.521484 
	C152.525970,358.488068 159.828369,359.825439 167.881912,361.296234 
	C177.674545,361.509857 186.733521,361.457367 195.792480,361.404846 
	C196.053558,365.384277 195.422943,368.846985 190.417389,370.004944 
z"/>
<path fill="#F7EBCB" opacity="1.000000" stroke="none" 
	d="
M226.456299,387.772644 
	C230.018646,383.982452 234.086166,384.367462 238.428665,385.562195 
	C238.990891,389.912567 239.556381,394.288086 240.156815,398.934082 
	C235.190811,398.934082 230.264008,398.934082 224.941483,398.934082 
	C225.434021,395.248627 225.906693,391.711792 226.456299,387.772644 
z"/>
<path fill="#561B04" opacity="1.000000" stroke="none" 
	d="
M208.853699,379.029877 
	C204.444260,385.614624 199.574905,392.059784 194.934204,398.665588 
	C193.839355,400.224030 193.514313,402.323242 192.570053,404.820404 
	C192.304962,406.517120 192.304962,407.567139 192.304962,408.617157 
	C192.880722,409.074677 193.456497,409.532166 194.032257,409.989685 
	C195.037018,408.337982 196.041763,406.686310 197.046509,405.034607 
	C197.046494,405.034607 196.998367,405.002380 197.250183,404.935303 
	C197.682907,404.593475 197.863831,404.318756 198.044769,404.044037 
	C198.503708,403.927124 198.962646,403.810211 199.734802,403.862946 
	C200.065796,404.198181 200.147202,404.389496 200.092163,404.525604 
	C197.965576,409.784790 193.652313,413.369385 190.908585,411.681488 
	C186.307541,408.850952 188.403656,404.552673 189.701004,400.961639 
	C193.100128,391.553040 199.118286,383.835419 206.536377,376.771423 
	C207.389099,377.398376 207.933228,378.173676 208.853699,379.029877 
z"/>
<path fill="#551A06" opacity="1.000000" stroke="none" 
	d="
M262.968750,401.310730 
	C264.796356,401.985046 266.750763,402.980957 269.435577,404.349060 
	C266.509125,393.639923 262.608002,384.030640 253.451508,377.118134 
	C253.890564,374.895325 254.673431,372.648865 255.738281,370.199066 
	C255.487701,375.532990 261.559509,376.688232 263.200348,380.867004 
	C266.259247,388.657196 269.682556,396.304901 272.697693,404.110962 
	C273.187531,405.379181 272.358582,407.156769 272.139191,408.698914 
	C271.624512,408.972839 271.109802,409.246765 270.595123,409.520691 
	C268.095245,406.891235 265.595398,404.261780 262.968750,401.310730 
z"/>
<path fill="#4D1909" opacity="1.000000" stroke="none" 
	d="
M243.692108,347.588074 
	C241.078827,348.215363 238.203949,348.598755 236.053452,348.885529 
	C236.053452,353.507233 236.053452,357.364410 236.034943,361.632019 
	C235.584824,362.010986 235.153229,361.979492 234.386810,361.690552 
	C234.052002,361.433075 234.027771,361.009003 234.027771,361.009003 
	C234.051407,359.871735 234.075073,358.734497 234.019669,356.927185 
	C233.291992,354.538116 232.643372,352.819061 231.994751,351.100037 
	C231.834763,351.047760 231.674789,350.995514 231.264053,350.971436 
	C227.245010,348.593964 223.308380,347.385834 218.557709,349.413879 
	C216.589157,348.606171 214.995529,347.685883 212.967590,346.603424 
	C216.603226,342.307404 221.582367,341.120239 226.969498,342.750305 
	C230.604782,343.850250 233.915939,344.087585 237.631531,342.234589 
	C235.934830,348.106964 241.028534,346.286682 243.692108,347.588074 
z"/>
<path fill="#F4E5C7" opacity="1.000000" stroke="none" 
	d="
M174.571884,394.854919 
	C173.408356,395.203186 172.173325,395.999756 171.092865,395.827393 
	C163.781281,394.660858 156.502380,393.289551 149.156250,390.940308 
	C157.887314,389.064423 166.618393,387.188568 175.933151,385.142090 
	C176.666901,384.890106 176.816956,384.808685 176.966995,384.727295 
	C177.004700,385.891632 177.042404,387.055969 176.754242,388.807007 
	C175.809555,391.214081 175.190720,393.034515 174.571884,394.854919 
z"/>
<path fill="#C1822B" opacity="1.000000" stroke="none" 
	d="
M196.074036,361.260071 
	C186.733521,361.457367 177.674545,361.509857 168.307129,361.287964 
	C169.855011,360.354462 171.665054,359.469879 173.576141,359.077698 
	C179.916443,357.776611 186.293121,356.652802 193.323868,355.109558 
	C196.986282,354.815186 199.980682,354.872284 202.975082,354.929382 
	C203.968124,355.002594 204.961166,355.075836 206.431641,355.346222 
	C206.909073,355.543365 207.163147,355.956421 207.163147,355.956421 
	C207.098419,356.373535 207.033707,356.790680 206.603729,357.621948 
	C203.995819,358.972168 201.753174,359.908234 199.510513,360.844330 
	C198.458878,360.934631 197.407227,361.024963 196.074036,361.260071 
z"/>
<path fill="#5B1C03" opacity="1.000000" stroke="none" 
	d="
M376.587860,350.911346 
	C387.370148,345.853455 397.808075,340.937744 408.582458,335.924805 
	C408.950317,336.670990 408.981781,337.514435 409.030334,338.780518 
	C394.865997,348.737885 379.219330,354.537109 362.202087,357.227661 
	C366.715698,355.001129 371.479584,353.027344 376.587860,350.911346 
z"/>
<path fill="#F2E4C5" opacity="1.000000" stroke="none" 
	d="
M297.140076,385.979126 
	C302.531189,386.982117 307.500061,387.931458 312.468933,388.880768 
	C312.478149,389.222473 312.487366,389.564178 312.496552,389.905853 
	C305.332214,391.536499 298.167877,393.167145 290.932617,394.813904 
	C289.295929,391.033600 287.930176,387.878998 286.115448,383.687347 
	C290.201172,384.549835 293.459503,385.237640 297.140076,385.979126 
z"/>
<path fill="#4D1909" opacity="1.000000" stroke="none" 
	d="
M202.724457,354.666626 
	C199.980682,354.872284 196.986282,354.815186 193.547943,354.797607 
	C192.414276,354.732056 191.724533,354.626984 190.387878,354.361816 
	C188.828094,354.191711 187.915207,354.181702 187.002335,354.171692 
	C184.552551,353.929077 182.102783,353.686432 179.552399,352.974426 
	C180.891785,352.666840 182.469391,353.285400 183.744904,352.901184 
	C187.028229,351.912079 191.755493,353.688049 193.001923,348.452545 
	C193.831451,348.489014 194.660995,348.525513 195.759949,348.725647 
	C195.643753,353.688507 199.252228,353.820129 202.724457,354.666626 
z"/>
<path fill="#4D1909" opacity="1.000000" stroke="none" 
	d="
M242.063324,342.328583 
	C245.544128,343.301910 249.084244,344.635803 252.629333,345.956329 
	C254.484329,346.647308 256.348083,347.314789 258.603638,348.071289 
	C258.453094,349.765717 257.906769,351.381744 257.579315,352.350342 
	C252.147156,348.952606 247.135925,345.818115 242.063324,342.328583 
z"/>
<path fill="#551A06" opacity="1.000000" stroke="none" 
	d="
M248.864716,381.084045 
	C243.042496,384.156372 245.063232,389.291199 245.930969,394.556030 
	C244.931335,392.610107 243.589890,390.327850 243.090439,387.874176 
	C242.260925,383.799011 243.978958,381.212555 248.864716,381.084045 
z"/>
<path fill="#4D1909" opacity="1.000000" stroke="none" 
	d="
M220.036285,379.294983 
	C222.089417,379.298523 224.138657,379.694214 226.595520,380.114685 
	C226.889496,381.223511 226.775848,382.307526 226.564941,384.319122 
	C224.019806,382.514465 222.026108,381.100830 220.036285,379.294983 
z"/>
<path fill="#4D1909" opacity="1.000000" stroke="none" 
	d="
M175.304886,379.452271 
	C177.144897,378.587280 179.219208,377.943756 181.650070,377.339508 
	C181.024292,381.450867 178.396362,380.885315 175.304886,379.452271 
z"/>
<path fill="#4D1909" opacity="1.000000" stroke="none" 
	d="
M276.084412,378.778412 
	C274.683563,378.000824 273.432251,376.880890 272.051422,375.472900 
	C273.410675,375.093384 274.899475,375.001862 276.749329,374.831482 
	C277.110413,374.752655 277.061157,374.849548 277.113464,374.834351 
	C276.855133,376.024780 276.544525,377.230438 276.084412,378.778412 
z"/>
<path fill="#4D1909" opacity="1.000000" stroke="none" 
	d="
M40.613571,271.328369 
	C40.956230,275.044373 41.030731,279.062836 41.038780,283.540436 
	C40.436913,283.538788 39.419102,283.052521 39.441895,282.621277 
	C39.635834,278.952148 40.018974,275.292999 40.613571,271.328369 
z"/>
<path fill="#4D1909" opacity="1.000000" stroke="none" 
	d="
M199.912567,360.903564 
	C201.753174,359.908234 203.995819,358.972168 206.584442,357.938110 
	C206.692337,363.048767 203.302444,361.579895 199.912567,360.903564 
z"/>
<path fill="#4D1909" opacity="1.000000" stroke="none" 
	d="
M185.659088,384.012573 
	C185.241592,385.592804 184.444122,387.168091 183.377930,388.936615 
	C183.767426,387.394867 179.977768,383.775665 185.659088,384.012573 
z"/>
<path fill="#581B06" opacity="1.000000" stroke="none" 
	d="
M280.192993,384.982727 
	C279.195404,384.268585 278.562225,383.492188 277.889587,382.411652 
	C279.144165,382.452332 280.438232,382.797150 281.732269,383.141968 
	C281.340637,383.734802 280.949005,384.327667 280.192993,384.982727 
z"/>
<path fill="#4D1909" opacity="1.000000" stroke="none" 
	d="
M182.794037,389.105957 
	C182.703384,390.300964 182.244598,391.496063 181.553635,392.914001 
	C178.962311,391.045929 180.177490,389.934418 182.794037,389.105957 
z"/>
<path fill="#4D1909" opacity="1.000000" stroke="none" 
	d="
M174.981369,394.845490 
	C175.190720,393.034515 175.809555,391.214081 176.698120,389.159637 
	C176.442169,390.895752 175.916519,392.865906 174.981369,394.845490 
z"/>
<path fill="#551A06" opacity="1.000000" stroke="none" 
	d="
M252.774979,377.100159 
	C252.281647,378.261627 251.428345,379.422729 250.277344,380.681824 
	C250.791443,379.553131 251.603226,378.326416 252.774979,377.100159 
z"/>
<path fill="#4D1909" opacity="1.000000" stroke="none" 
	d="
M272.764771,367.084534 
	C273.177124,367.510376 273.204651,367.898102 273.286255,368.572754 
	C272.128479,368.859680 270.916687,368.859680 269.704865,368.859680 
	C269.637695,368.463348 269.570526,368.067017 269.503357,367.670685 
	C270.462219,367.462616 271.421051,367.254547 272.764771,367.084534 
z"/>
<path fill="#551A06" opacity="1.000000" stroke="none" 
	d="
M246.110840,398.014465 
	C246.785889,399.144287 247.415192,400.708069 248.053360,402.634491 
	C247.396515,401.480896 246.730789,399.964661 246.110840,398.014465 
z"/>
<path fill="#4D1909" opacity="1.000000" stroke="none" 
	d="
M210.259491,349.339661 
	C210.669189,348.359558 211.300034,347.610840 212.181183,346.706726 
	C211.781189,347.557861 211.130905,348.564453 210.259491,349.339661 
z"/>
<path fill="#4D1909" opacity="1.000000" stroke="none" 
	d="
M212.413849,362.062134 
	C212.830292,363.058777 212.957306,364.117401 213.091705,365.576904 
	C212.774200,364.693176 212.449326,363.408661 212.413849,362.062134 
z"/>
<path fill="#4D1909" opacity="1.000000" stroke="none" 
	d="
M179.834854,396.103333 
	C179.968002,396.972015 179.772232,397.842896 179.340790,398.956848 
	C179.238708,398.168427 179.372330,397.136963 179.834854,396.103333 
z"/>
<path fill="#581B06" opacity="1.000000" stroke="none" 
	d="
M285.035797,377.354919 
	C285.554688,377.130371 286.116760,377.211487 286.902039,377.473724 
	C286.443176,377.656738 285.761078,377.658661 285.035797,377.354919 
z"/>
<path fill="#4D1909" opacity="1.000000" stroke="none" 
	d="
M213.858856,380.100159 
	C213.276001,379.851440 212.714249,379.239502 212.097733,378.313416 
	C212.655304,378.578491 213.267639,379.157745 213.858856,380.100159 
z"/>
<path fill="#4D1909" opacity="1.000000" stroke="none" 
	d="
M185.189453,375.901550 
	C185.295914,375.233643 185.775711,374.537048 186.546524,373.684326 
	C186.412628,374.309753 185.987701,375.091309 185.189453,375.901550 
z"/>
<path fill="#4D1909" opacity="1.000000" stroke="none" 
	d="
M265.063477,353.105774 
	C264.243225,353.424316 263.020172,353.706207 261.418579,353.935364 
	C262.246918,353.611450 263.453796,353.340271 265.063477,353.105774 
z"/>
<path fill="#4D1909" opacity="1.000000" stroke="none" 
	d="
M251.766724,355.062714 
	C251.255814,354.691956 251.054306,354.178894 250.849792,353.386353 
	C251.256577,353.711426 251.666351,354.315887 251.766724,355.062714 
z"/>
<path fill="#4D1909" opacity="1.000000" stroke="none" 
	d="
M262.959351,366.618317 
	C262.413574,366.838104 261.828308,366.763794 261.090759,366.421814 
	C261.598907,366.210815 262.259369,366.267517 262.959351,366.618317 
z"/>
<path fill="#4D1909" opacity="1.000000" stroke="none" 
	d="
M257.829407,354.185547 
	C258.029510,354.765717 257.962158,355.494019 257.874512,356.588257 
	C257.756775,356.080688 257.659332,355.207184 257.829407,354.185547 
z"/>
<path fill="#4D1909" opacity="1.000000" stroke="none" 
	d="
M180.723083,394.190369 
	C180.840866,394.590088 180.712418,395.172272 180.343811,395.940430 
	C180.228043,395.541901 180.352463,394.957367 180.723083,394.190369 
z"/>
<path fill="#551A06" opacity="1.000000" stroke="none" 
	d="
M236.154663,379.296967 
	C236.451309,379.087463 236.884033,379.082184 237.629532,379.167603 
	C237.391785,379.339203 236.841248,379.420197 236.154663,379.296967 
z"/>
<path fill="#551A06" opacity="1.000000" stroke="none" 
	d="
M230.892883,378.864136 
	C231.142792,378.548218 231.731216,378.270172 232.647308,378.054871 
	C232.393784,378.379089 231.812607,378.640503 230.892883,378.864136 
z"/>
<path fill="#4D1909" opacity="1.000000" stroke="none" 
	d="
M213.751709,354.174194 
	C213.995941,354.442047 213.987976,354.884369 213.963394,355.659729 
	C213.946793,355.992798 213.483322,355.978729 213.257736,356.032013 
	C213.187943,355.506409 213.343735,354.927521 213.751709,354.174194 
z"/>
<path fill="#581B06" opacity="1.000000" stroke="none" 
	d="
M281.221313,376.301575 
	C281.631500,376.170532 282.245392,376.294189 283.092896,376.638000 
	C282.692657,376.757538 282.058807,376.656921 281.221313,376.301575 
z"/>
<path fill="#4D1909" opacity="1.000000" stroke="none" 
	d="
M212.670929,357.170471 
	C212.881180,357.460052 212.894623,357.886414 212.819153,358.621521 
	C212.644867,358.389252 212.559509,357.848267 212.670929,357.170471 
z"/>
<path fill="#4D1909" opacity="1.000000" stroke="none" 
	d="
M258.200684,358.009583 
	C258.644104,357.945770 259.211792,358.197266 259.978485,358.689087 
	C259.559967,358.727936 258.942413,358.526428 258.200684,358.009583 
z"/>
<path fill="#551A06" opacity="1.000000" stroke="none" 
	d="
M251.352356,368.751617 
	C251.203247,368.339966 251.300613,367.708252 251.616760,366.828979 
	C251.756638,367.231476 251.677734,367.881500 251.352356,368.751617 
z"/>
<path fill="#551A06" opacity="1.000000" stroke="none" 
	d="
M248.164856,403.844452 
	C248.371887,403.846619 248.602585,404.135529 248.871429,404.701721 
	C248.669220,404.696411 248.428864,404.413818 248.164856,403.844452 
z"/>
<path fill="#4D1909" opacity="1.000000" stroke="none" 
	d="
M198.087433,349.188904 
	C198.171082,348.984344 198.338226,348.942657 198.748505,348.988342 
	C198.718063,349.167755 198.444489,349.259766 198.087433,349.188904 
z"/>
<path fill="#4D1909" opacity="1.000000" stroke="none" 
	d="
M215.865753,351.135895 
	C215.927795,351.336151 215.742950,351.635986 215.301697,352.021545 
	C215.236481,351.816681 215.427658,351.526062 215.865753,351.135895 
z"/>
<path fill="#4D1909" opacity="1.000000" stroke="none" 
	d="
M214.840210,352.181732 
	C214.940216,352.387177 214.772675,352.736237 214.362213,353.255127 
	C214.270432,353.058411 214.421555,352.691895 214.840210,352.181732 
z"/>
<path fill="#4D1909" opacity="1.000000" stroke="none" 
	d="
M176.854919,384.601013 
	C176.816956,384.808685 176.666901,384.890106 176.262619,384.940918 
	C176.253204,384.765106 176.498016,384.619934 176.854919,384.601013 
z"/>
<path fill="#4D1909" opacity="1.000000" stroke="none" 
	d="
M250.857697,352.870422 
	C250.671295,352.906433 250.409485,352.702301 250.085510,352.247803 
	C250.276321,352.208405 250.529312,352.419312 250.857697,352.870422 
z"/>
<path fill="#581B06" opacity="1.000000" stroke="none" 
	d="
M277.830017,381.874115 
	C277.639008,381.937958 277.347778,381.738007 276.912109,381.309784 
	C277.088409,381.257812 277.409119,381.434082 277.830017,381.874115 
z"/>
<path fill="#551A06" opacity="1.000000" stroke="none" 
	d="
M240.146759,379.374603 
	C240.041794,379.248291 240.499008,379.091553 240.740356,379.100128 
	C240.849304,379.496765 240.605972,379.627502 240.146759,379.374603 
z"/>
<path fill="#551A06" opacity="1.000000" stroke="none" 
	d="
M242.044617,378.887695 
	C241.961258,378.636719 242.187653,378.416718 242.722733,378.233765 
	C242.817947,378.500549 242.592255,378.716522 242.044617,378.887695 
z"/>
<path fill="#551A06" opacity="1.000000" stroke="none" 
	d="
M234.200165,378.498444 
	C234.379929,378.269073 234.656830,378.352814 235.024109,378.765594 
	C234.853958,378.946930 234.581573,378.852570 234.200165,378.498444 
z"/>
<path fill="#4D1909" opacity="1.000000" stroke="none" 
	d="
M207.300232,355.824463 
	C207.163147,355.956421 206.909073,355.543365 206.805496,355.323792 
	C206.947037,355.300354 207.192169,355.496460 207.300232,355.824463 
z"/>
<path fill="#551A06" opacity="1.000000" stroke="none" 
	d="
M248.096802,374.844543 
	C248.032257,374.647766 248.241730,374.346252 248.684067,373.890442 
	C248.734894,374.070648 248.552856,374.405243 248.096802,374.844543 
z"/>
<path fill="#4D1909" opacity="1.000000" stroke="none" 
	d="
M194.805817,373.119446 
	C194.867218,373.311249 194.698547,373.611847 194.274536,373.986511 
	C194.204697,373.783142 194.390213,373.505707 194.805817,373.119446 
z"/>
<path fill="#551A06" opacity="1.000000" stroke="none" 
	d="
M249.349945,372.848206 
	C249.136795,372.624481 249.265427,372.341003 249.751251,372.010132 
	C249.925919,372.223389 249.787003,372.498596 249.349945,372.848206 
z"/>
<path fill="#4D1909" opacity="1.000000" stroke="none" 
	d="
M215.164246,371.891388 
	C215.382004,371.877319 215.643539,372.154602 215.957153,372.716400 
	C215.742172,372.728180 215.475098,372.455444 215.164246,371.891388 
z"/>
<path fill="#4D1909" opacity="1.000000" stroke="none" 
	d="
M261.176514,359.382904 
	C261.384766,359.176514 261.665955,359.300140 262.022400,359.757019 
	C261.829926,359.929047 261.547180,359.803253 261.176514,359.382904 
z"/>
<path fill="#4D1909" opacity="1.000000" stroke="none" 
	d="
M214.162445,369.817078 
	C214.376312,369.815186 214.626312,370.113922 214.927353,370.702545 
	C214.718445,370.700836 214.458496,370.409271 214.162445,369.817078 
z"/>
<path fill="#4A1207" opacity="1.000000" stroke="none" 
	d="
M149.181396,285.919128 
	C145.057693,298.009064 133.801254,304.076904 122.695175,300.550323 
	C112.122612,297.193146 105.797989,286.242279 108.406502,275.809906 
	C111.222816,264.546478 122.465218,257.494507 133.595993,260.009369 
	C145.113113,262.611511 151.534698,273.065918 149.181396,285.919128 
z"/>
<path fill="#4A1207" opacity="1.000000" stroke="none" 
	d="
M309.958374,283.559052 
	C309.567963,272.046844 314.151947,264.483856 323.332611,260.994171 
	C331.539459,257.874634 340.972656,260.146332 346.499542,266.751648 
	C352.306946,273.692230 353.179932,281.523956 349.655548,289.670227 
	C346.393158,297.211151 338.384979,301.718597 329.758331,301.272644 
	C320.696075,300.804169 314.496979,296.214661 311.130219,287.814148 
	C310.638214,286.586395 310.369629,285.269073 309.958374,283.559052 
z"/>
<path fill="#FAEABC" opacity="1.000000" stroke="none" 
	d="
M342.737762,216.206970 
	C338.429260,225.149048 331.983978,228.443314 322.286194,226.779984 
	C318.055695,226.054382 313.859802,225.095551 309.682098,224.100372 
	C301.967041,222.262543 297.046600,215.455841 298.028809,208.022446 
	C298.854370,201.774643 304.587372,193.712280 312.860107,194.967682 
	C318.868622,195.879486 325.002838,196.189789 330.901123,197.548996 
	C340.290253,199.712585 343.953918,206.492355 342.737762,216.206970 
z"/>
<path fill="#FAE9BC" opacity="1.000000" stroke="none" 
	d="
M110.325424,214.392303 
	C109.970779,205.174347 113.675148,199.622375 122.170547,197.567551 
	C127.930031,196.174469 133.918625,195.369156 139.841354,195.096649 
	C148.234512,194.710480 154.241180,200.347565 154.965485,208.431686 
	C155.659180,216.173843 150.840668,222.593872 143.012589,224.185181 
	C138.144531,225.174774 133.257111,226.090714 128.350937,226.866074 
	C121.160141,228.002441 112.262177,224.156479 110.325424,214.392303 
z"/>
<path fill="#49140A" opacity="1.000000" stroke="none" 
	d="
M238.992340,269.741089 
	C249.186325,276.229767 249.849335,284.324493 240.853195,291.527283 
	C237.226746,294.430786 239.746140,297.201996 240.399078,300.009735 
	C241.118835,303.104767 243.405609,304.483948 246.405945,303.769592 
	C248.433960,303.286713 250.339935,302.127380 252.183701,301.067505 
	C256.530273,298.568756 260.982117,299.295502 263.641632,303.072754 
	C266.265778,306.799774 265.510193,311.364929 261.731079,314.616241 
	C253.341309,321.834259 241.434967,322.665802 232.065094,316.685425 
	C231.226166,316.149963 230.397369,315.598602 229.489914,315.006378 
	C219.059341,322.565094 208.530075,322.606201 198.036896,315.277069 
	C193.506622,312.112885 192.416473,307.117798 195.135941,303.132446 
	C197.901321,299.079895 202.388168,298.812134 207.449585,301.464874 
	C209.993973,302.798370 214.245285,304.156677 215.963837,302.964844 
	C218.179901,301.427887 218.821228,297.402008 219.708359,294.323486 
	C219.925049,293.571533 218.646118,292.100708 217.731232,291.360321 
	C213.707047,288.103668 211.112442,284.243134 212.336288,278.845581 
	C213.568146,273.412659 217.405090,269.787903 222.539612,269.074646 
	C227.785019,268.345947 233.268311,269.329742 238.992340,269.741089 
z"/>
<path fill="#4B140A" opacity="1.000000" stroke="none" 
	d="
M192.569489,348.320190 
	C191.755493,353.688049 187.028229,351.912079 183.744904,352.901184 
	C182.469391,353.285400 180.891785,352.666840 179.217773,352.769226 
	C178.526611,353.036438 178.069489,353.039429 177.032806,352.698944 
	C175.769135,352.291443 175.084991,352.227478 174.400864,352.163483 
	C173.167068,352.154022 171.933273,352.144592 170.150269,351.704224 
	C166.756546,351.092194 163.912033,350.911102 161.067505,350.729980 
	C159.606918,350.522186 158.146332,350.314423 156.098145,349.729980 
	C149.480591,346.633667 143.207062,345.347015 136.580795,346.135559 
	C136.215134,346.145447 135.849457,346.155334 135.028671,345.811432 
	C134.173355,345.361450 133.773163,345.265289 133.372971,345.169189 
	C132.460175,345.130554 131.547394,345.091919 130.303497,344.943787 
	C128.472122,341.737915 129.734772,340.946472 132.748260,341.352600 
	C136.618683,341.874237 140.509155,342.247131 144.673157,342.440063 
	C148.396225,342.706787 151.837143,343.217529 155.717850,344.054535 
	C156.430115,344.323364 156.702576,344.265961 156.975052,344.208557 
	C158.111588,344.360291 159.248138,344.512024 160.929337,345.099792 
	C163.660660,345.656647 165.847336,345.777435 168.033997,345.898224 
	C168.203568,345.857025 168.373123,345.815857 168.849487,346.061310 
	C169.431808,346.278198 169.707352,346.208496 169.982880,346.138794 
	C170.754456,346.176819 171.526031,346.214844 172.715881,346.672424 
	C173.758698,347.053223 174.383240,347.014435 175.007797,346.975677 
	C177.070389,347.080536 179.132996,347.185394 181.675507,347.721069 
	C182.779175,348.074249 183.402893,347.996674 184.026627,347.919067 
	C186.730103,348.008667 189.433594,348.098236 192.569489,348.320190 
z"/>
<path fill="#4D1909" opacity="1.000000" stroke="none" 
	d="
M167.689728,345.718536 
	C165.847336,345.777435 163.660660,345.656647 161.236862,345.262360 
	C163.114975,345.172180 165.230225,345.355499 167.689728,345.718536 
z"/>
<path fill="#4D1909" opacity="1.000000" stroke="none" 
	d="
M174.784149,346.823761 
	C174.383240,347.014435 173.758698,347.053223 173.063782,346.847046 
	C173.515778,346.625336 174.038132,346.648590 174.784149,346.823761 
z"/>
<path fill="#4D1909" opacity="1.000000" stroke="none" 
	d="
M183.796646,347.777283 
	C183.402893,347.996674 182.779175,348.074249 182.076263,347.910950 
	C182.520264,347.658539 183.043472,347.647034 183.796646,347.777283 
z"/>
<path fill="#4D1909" opacity="1.000000" stroke="none" 
	d="
M169.748688,346.025818 
	C169.707352,346.208496 169.431808,346.278198 169.080872,346.183655 
	C169.175140,345.983856 169.344818,345.948334 169.748688,346.025818 
z"/>
<path fill="#4D1909" opacity="1.000000" stroke="none" 
	d="
M156.745483,344.092957 
	C156.702576,344.265961 156.430115,344.323364 156.083466,344.222778 
	C156.178177,344.035614 156.347031,344.006470 156.745483,344.092957 
z"/>
<path fill="#4D1909" opacity="1.000000" stroke="none" 
	d="
M136.887695,346.403015 
	C143.207062,345.347015 149.480591,346.633667 155.741013,349.624695 
	C149.712524,348.820923 143.453552,347.745697 136.887695,346.403015 
z"/>
<path fill="#4D1909" opacity="1.000000" stroke="none" 
	d="
M161.451965,350.855469 
	C163.912033,350.911102 166.756546,351.092194 169.791092,351.595123 
	C167.266220,351.604950 164.551331,351.292938 161.451965,350.855469 
z"/>
<path fill="#C1822B" opacity="1.000000" stroke="none" 
	d="
M187.270462,354.406799 
	C187.915207,354.181702 188.828094,354.191711 190.039001,354.376068 
	C189.404205,354.580933 188.471405,354.611420 187.270462,354.406799 
z"/>
<path fill="#4D1909" opacity="1.000000" stroke="none" 
	d="
M174.642670,352.420166 
	C175.084991,352.227478 175.769135,352.291443 176.704895,352.593018 
	C176.265854,352.779358 175.575180,352.728088 174.642670,352.420166 
z"/>
<path fill="#4D1909" opacity="1.000000" stroke="none" 
	d="
M133.557999,345.432190 
	C133.773163,345.265289 134.173355,345.361450 134.777313,345.693939 
	C134.568405,345.851929 134.155716,345.773560 133.557999,345.432190 
z"/>
<path fill="#DAA550" opacity="1.000000" stroke="none" 
	d="
M326.760986,369.775513 
	C327.857758,368.795959 329.540466,368.091736 330.847534,366.955414 
	C332.078400,365.885284 332.913361,364.359772 333.922485,363.034607 
	C332.649719,362.313721 331.418976,361.499298 330.090546,360.902161 
	C329.070526,360.443695 327.927429,360.259064 326.446320,359.896729 
	C326.030945,359.440369 326.008301,359.039917 325.965942,358.339935 
	C326.439575,358.032501 326.974823,357.894440 327.419586,358.037567 
	C330.774170,359.117157 335.948212,358.370636 335.800507,363.620605 
	C335.662628,368.520874 331.162720,369.262878 326.760986,369.775513 
z"/>
<path fill="#CB9244" opacity="1.000000" stroke="none" 
	d="
M286.242126,370.072021 
	C290.735992,370.169312 295.439880,370.607544 300.572906,371.160400 
	C300.126831,371.676880 299.251648,372.078735 298.208588,372.719788 
	C294.177856,372.110321 290.315033,371.261627 286.242126,370.072021 
z"/>
<path fill="#CB9244" opacity="1.000000" stroke="none" 
	d="
M315.294556,371.419159 
	C317.731781,370.739014 320.453186,370.299805 323.592743,369.886292 
	C321.200165,370.494690 318.389465,371.077393 315.294556,371.419159 
z"/>
<path fill="#561B04" opacity="1.000000" stroke="none" 
	d="
M200.312958,404.002838 
	C200.295288,403.554932 200.552994,403.066254 201.001282,402.808350 
	C200.990677,403.346771 200.789505,403.654419 200.312958,404.002838 
z"/>
<path fill="#B37634" opacity="1.000000" stroke="none" 
	d="
M196.616623,405.018311 
	C196.041763,406.686310 195.037018,408.337982 194.032257,409.989685 
	C193.456497,409.532166 192.880722,409.074677 192.304962,408.617157 
	C192.304962,407.567139 192.304962,406.517120 192.516449,405.206085 
	C193.880875,404.964020 195.033798,404.983002 196.616623,405.018311 
z"/>
<path fill="#B37634" opacity="1.000000" stroke="none" 
	d="
M197.893661,403.876587 
	C197.863831,404.318756 197.682907,404.593475 197.268402,404.958008 
	C197.270737,404.601624 197.506653,404.155396 197.893661,403.876587 
z"/>
<path fill="#BF842B" opacity="1.000000" stroke="none" 
	d="
M231.995483,351.496552 
	C232.643372,352.819061 233.291992,354.538116 233.887299,356.629608 
	C233.221390,355.299072 232.608795,353.596069 231.995483,351.496552 
z"/>
<path fill="#BF842B" opacity="1.000000" stroke="none" 
	d="
M233.820923,361.116760 
	C234.027771,361.009003 234.052002,361.433075 234.065460,361.644897 
	C233.860550,362.018860 233.642181,362.181000 233.423798,362.343140 
	C233.487228,361.970276 233.550659,361.597382 233.820923,361.116760 
z"/>
</svg>